<mxfile host="Electron" agent="Mozilla/5.0 (Windows NT 10.0; Win64; x64) AppleWebKit/537.36 (KHTML, like Gecko) draw.io/26.2.2 Chrome/134.0.6998.178 Electron/35.1.2 Safari/537.36" version="26.2.2">
  <diagram name="Page-1" id="R5zK6BoZA6WZ-tGess29">
    <mxGraphModel dx="668" dy="334" grid="1" gridSize="10" guides="1" tooltips="1" connect="1" arrows="1" fold="1" page="1" pageScale="1" pageWidth="850" pageHeight="1100" math="0" shadow="0">
      <root>
        <mxCell id="0" />
        <mxCell id="1" parent="0" />
        <mxCell id="5AZf3xwCggOx8N9MnfIB-33" value="Controller" style="shape=umlLifeline;perimeter=lifelinePerimeter;whiteSpace=wrap;html=1;container=1;dropTarget=0;collapsible=0;recursiveResize=0;outlineConnect=0;portConstraint=eastwest;newEdgeStyle={&quot;curved&quot;:0,&quot;rounded&quot;:0};" vertex="1" parent="1">
          <mxGeometry x="290" y="70" width="100" height="700" as="geometry" />
        </mxCell>
        <mxCell id="5AZf3xwCggOx8N9MnfIB-34" value="" style="html=1;points=[[0,0,0,0,5],[0,1,0,0,-5],[1,0,0,0,5],[1,1,0,0,-5]];perimeter=orthogonalPerimeter;outlineConnect=0;targetShapes=umlLifeline;portConstraint=eastwest;newEdgeStyle={&quot;curved&quot;:0,&quot;rounded&quot;:0};" vertex="1" parent="5AZf3xwCggOx8N9MnfIB-33">
          <mxGeometry x="45" y="80" width="10" height="440" as="geometry" />
        </mxCell>
        <mxCell id="5AZf3xwCggOx8N9MnfIB-35" style="edgeStyle=orthogonalEdgeStyle;rounded=0;orthogonalLoop=1;jettySize=auto;html=1;dashed=1;endArrow=none;startFill=0;" edge="1" parent="1" source="5AZf3xwCggOx8N9MnfIB-36">
          <mxGeometry relative="1" as="geometry">
            <mxPoint x="150" y="770" as="targetPoint" />
            <Array as="points">
              <mxPoint x="150" y="760" />
              <mxPoint x="150" y="760" />
            </Array>
          </mxGeometry>
        </mxCell>
        <mxCell id="5AZf3xwCggOx8N9MnfIB-36" value="Actor" style="shape=umlActor;verticalLabelPosition=bottom;verticalAlign=top;html=1;" vertex="1" parent="1">
          <mxGeometry x="140" y="40" width="30" height="60" as="geometry" />
        </mxCell>
        <mxCell id="5AZf3xwCggOx8N9MnfIB-37" value="Service" style="shape=umlLifeline;perimeter=lifelinePerimeter;whiteSpace=wrap;html=1;container=1;dropTarget=0;collapsible=0;recursiveResize=0;outlineConnect=0;portConstraint=eastwest;newEdgeStyle={&quot;curved&quot;:0,&quot;rounded&quot;:0};" vertex="1" parent="1">
          <mxGeometry x="510" y="70" width="100" height="690" as="geometry" />
        </mxCell>
        <mxCell id="5AZf3xwCggOx8N9MnfIB-38" value="" style="html=1;points=[[0,0,0,0,5],[0,1,0,0,-5],[1,0,0,0,5],[1,1,0,0,-5]];perimeter=orthogonalPerimeter;outlineConnect=0;targetShapes=umlLifeline;portConstraint=eastwest;newEdgeStyle={&quot;curved&quot;:0,&quot;rounded&quot;:0};" vertex="1" parent="5AZf3xwCggOx8N9MnfIB-37">
          <mxGeometry x="45" y="100" width="10" height="120" as="geometry" />
        </mxCell>
        <mxCell id="5AZf3xwCggOx8N9MnfIB-39" value="Database" style="shape=umlLifeline;perimeter=lifelinePerimeter;whiteSpace=wrap;html=1;container=1;dropTarget=0;collapsible=0;recursiveResize=0;outlineConnect=0;portConstraint=eastwest;newEdgeStyle={&quot;curved&quot;:0,&quot;rounded&quot;:0};" vertex="1" parent="1">
          <mxGeometry x="730" y="70" width="100" height="700" as="geometry" />
        </mxCell>
        <mxCell id="5AZf3xwCggOx8N9MnfIB-40" value="" style="html=1;points=[[0,0,0,0,5],[0,1,0,0,-5],[1,0,0,0,5],[1,1,0,0,-5]];perimeter=orthogonalPerimeter;outlineConnect=0;targetShapes=umlLifeline;portConstraint=eastwest;newEdgeStyle={&quot;curved&quot;:0,&quot;rounded&quot;:0};" vertex="1" parent="5AZf3xwCggOx8N9MnfIB-39">
          <mxGeometry x="45" y="120" width="10" height="100" as="geometry" />
        </mxCell>
        <mxCell id="5AZf3xwCggOx8N9MnfIB-41" value="Chọn chức năng quản lý tài khoản" style="html=1;verticalAlign=bottom;endArrow=block;curved=0;rounded=0;" edge="1" parent="1">
          <mxGeometry width="80" relative="1" as="geometry">
            <mxPoint x="150" y="150" as="sourcePoint" />
            <mxPoint x="339.5000000000001" y="150" as="targetPoint" />
            <Array as="points" />
          </mxGeometry>
        </mxCell>
        <mxCell id="5AZf3xwCggOx8N9MnfIB-42" value="Kiểm tra có đang trong phiên đăng nhập" style="html=1;verticalAlign=bottom;endArrow=block;curved=0;rounded=0;" edge="1" parent="1" source="5AZf3xwCggOx8N9MnfIB-34" target="5AZf3xwCggOx8N9MnfIB-37">
          <mxGeometry width="80" relative="1" as="geometry">
            <mxPoint x="360" y="170" as="sourcePoint" />
            <mxPoint x="529.5000000000001" y="170" as="targetPoint" />
            <Array as="points">
              <mxPoint x="410" y="170" />
            </Array>
          </mxGeometry>
        </mxCell>
        <mxCell id="5AZf3xwCggOx8N9MnfIB-43" value="Kiểm tra" style="html=1;verticalAlign=bottom;endArrow=block;curved=0;rounded=0;" edge="1" parent="1" source="5AZf3xwCggOx8N9MnfIB-38">
          <mxGeometry width="80" relative="1" as="geometry">
            <mxPoint x="570" y="190" as="sourcePoint" />
            <mxPoint x="780" y="190" as="targetPoint" />
            <Array as="points">
              <mxPoint x="630" y="190" />
            </Array>
          </mxGeometry>
        </mxCell>
        <mxCell id="5AZf3xwCggOx8N9MnfIB-44" value="Người dùng không trong phiên đăng nhập" style="html=1;verticalAlign=bottom;endArrow=open;dashed=1;endSize=8;curved=0;rounded=0;" edge="1" parent="1">
          <mxGeometry relative="1" as="geometry">
            <mxPoint x="779.5" y="230" as="sourcePoint" />
            <mxPoint x="560" y="230" as="targetPoint" />
          </mxGeometry>
        </mxCell>
        <mxCell id="5AZf3xwCggOx8N9MnfIB-45" value="Người dùng không trong phiên đăng nhập" style="html=1;verticalAlign=bottom;endArrow=open;dashed=1;endSize=8;curved=0;rounded=0;" edge="1" parent="1">
          <mxGeometry relative="1" as="geometry">
            <mxPoint x="559.5" y="250" as="sourcePoint" />
            <mxPoint x="340" y="250" as="targetPoint" />
          </mxGeometry>
        </mxCell>
        <mxCell id="5AZf3xwCggOx8N9MnfIB-46" value="Người dùng không trong phiên&lt;div&gt;đăng nhập&lt;/div&gt;" style="html=1;verticalAlign=bottom;endArrow=open;dashed=1;endSize=8;curved=0;rounded=0;" edge="1" parent="1">
          <mxGeometry relative="1" as="geometry">
            <mxPoint x="339.5" y="270" as="sourcePoint" />
            <mxPoint x="150" y="270" as="targetPoint" />
          </mxGeometry>
        </mxCell>
        <mxCell id="5AZf3xwCggOx8N9MnfIB-47" value="Alternative" style="shape=umlFrame;whiteSpace=wrap;html=1;pointerEvents=0;" vertex="1" parent="1">
          <mxGeometry x="20" y="210" width="830" height="520" as="geometry" />
        </mxCell>
        <mxCell id="5AZf3xwCggOx8N9MnfIB-48" value="[route to login page]" style="text;html=1;align=center;verticalAlign=middle;resizable=0;points=[];autosize=1;strokeColor=none;fillColor=none;" vertex="1" parent="1">
          <mxGeometry x="20" y="250" width="130" height="30" as="geometry" />
        </mxCell>
        <mxCell id="5AZf3xwCggOx8N9MnfIB-49" value="" style="line;strokeWidth=1;fillColor=none;align=left;verticalAlign=middle;spacingTop=-1;spacingLeft=3;spacingRight=3;rotatable=0;labelPosition=right;points=[];portConstraint=eastwest;strokeColor=inherit;dashed=1;" vertex="1" parent="1">
          <mxGeometry x="20" y="325" width="830" height="8" as="geometry" />
        </mxCell>
        <mxCell id="5AZf3xwCggOx8N9MnfIB-50" value="Người dùng có trong phiên đăng nhập" style="html=1;verticalAlign=bottom;endArrow=open;dashed=1;endSize=8;curved=0;rounded=0;" edge="1" parent="1" source="5AZf3xwCggOx8N9MnfIB-39">
          <mxGeometry relative="1" as="geometry">
            <mxPoint x="640" y="290" as="sourcePoint" />
            <mxPoint x="560" y="290" as="targetPoint" />
          </mxGeometry>
        </mxCell>
        <mxCell id="5AZf3xwCggOx8N9MnfIB-51" value="frame" style="shape=umlFrame;whiteSpace=wrap;html=1;pointerEvents=0;" vertex="1" parent="1">
          <mxGeometry x="50" y="370" width="760" height="290" as="geometry" />
        </mxCell>
        <mxCell id="5AZf3xwCggOx8N9MnfIB-52" value="Thêm tài khoản" style="html=1;verticalAlign=bottom;endArrow=block;curved=0;rounded=0;" edge="1" parent="1">
          <mxGeometry width="80" relative="1" as="geometry">
            <mxPoint x="150" y="390" as="sourcePoint" />
            <mxPoint x="339.5" y="390" as="targetPoint" />
            <Array as="points">
              <mxPoint x="230" y="390" />
            </Array>
          </mxGeometry>
        </mxCell>
        <mxCell id="5AZf3xwCggOx8N9MnfIB-53" value="[Choose a&lt;div&gt;function]&lt;/div&gt;" style="text;html=1;align=center;verticalAlign=middle;resizable=0;points=[];autosize=1;strokeColor=none;fillColor=none;" vertex="1" parent="1">
          <mxGeometry x="55" y="420" width="80" height="40" as="geometry" />
        </mxCell>
        <mxCell id="5AZf3xwCggOx8N9MnfIB-54" value="Xóa tài khoản" style="html=1;verticalAlign=bottom;endArrow=block;curved=0;rounded=0;" edge="1" parent="1">
          <mxGeometry x="0.0001" width="80" relative="1" as="geometry">
            <mxPoint x="150" y="450" as="sourcePoint" />
            <mxPoint x="339.5" y="450" as="targetPoint" />
            <Array as="points">
              <mxPoint x="230" y="450" />
            </Array>
            <mxPoint as="offset" />
          </mxGeometry>
        </mxCell>
        <mxCell id="5AZf3xwCggOx8N9MnfIB-55" value="Cập nhật tài khoản" style="html=1;verticalAlign=bottom;endArrow=block;curved=0;rounded=0;" edge="1" parent="1">
          <mxGeometry width="80" relative="1" as="geometry">
            <mxPoint x="150" y="509.83" as="sourcePoint" />
            <mxPoint x="339.5" y="509.83" as="targetPoint" />
            <Array as="points">
              <mxPoint x="230" y="509.83" />
            </Array>
          </mxGeometry>
        </mxCell>
        <mxCell id="5AZf3xwCggOx8N9MnfIB-56" value="Tìm kiếm&amp;nbsp;" style="html=1;verticalAlign=bottom;endArrow=block;curved=0;rounded=0;" edge="1" parent="1">
          <mxGeometry width="80" relative="1" as="geometry">
            <mxPoint x="150" y="570" as="sourcePoint" />
            <mxPoint x="339.5" y="570" as="targetPoint" />
            <Array as="points">
              <mxPoint x="230" y="570" />
            </Array>
          </mxGeometry>
        </mxCell>
        <mxCell id="5AZf3xwCggOx8N9MnfIB-57" value="Render giao diện thêm TK" style="html=1;verticalAlign=bottom;endArrow=open;dashed=1;endSize=8;curved=0;rounded=0;" edge="1" parent="1">
          <mxGeometry relative="1" as="geometry">
            <mxPoint x="340" y="410" as="sourcePoint" />
            <mxPoint x="150" y="410" as="targetPoint" />
          </mxGeometry>
        </mxCell>
        <mxCell id="5AZf3xwCggOx8N9MnfIB-58" value="Render giao diện xóa TK" style="html=1;verticalAlign=bottom;endArrow=open;dashed=1;endSize=8;curved=0;rounded=0;" edge="1" parent="1">
          <mxGeometry relative="1" as="geometry">
            <mxPoint x="340" y="469.76" as="sourcePoint" />
            <mxPoint x="150" y="469.76" as="targetPoint" />
          </mxGeometry>
        </mxCell>
        <mxCell id="5AZf3xwCggOx8N9MnfIB-59" value="Render giao diện cập nhật TK" style="html=1;verticalAlign=bottom;endArrow=open;dashed=1;endSize=8;curved=0;rounded=0;" edge="1" parent="1">
          <mxGeometry relative="1" as="geometry">
            <mxPoint x="340" y="530" as="sourcePoint" />
            <mxPoint x="150" y="530" as="targetPoint" />
          </mxGeometry>
        </mxCell>
        <mxCell id="5AZf3xwCggOx8N9MnfIB-60" value="Render giao diện tìm kiếm TK" style="html=1;verticalAlign=bottom;endArrow=open;dashed=1;endSize=8;curved=0;rounded=0;" edge="1" parent="1">
          <mxGeometry relative="1" as="geometry">
            <mxPoint x="340" y="590" as="sourcePoint" />
            <mxPoint x="150" y="590" as="targetPoint" />
          </mxGeometry>
        </mxCell>
      </root>
    </mxGraphModel>
  </diagram>
</mxfile>
